<?xml version="1.0" encoding="UTF-8" standalone="no"?>
<svg
   xmlns="http://www.w3.org/2000/svg" 
   xmlns:xlink="http://www.w3.org/1999/xlink" 
   contentScriptType="text/ecmascript" 
   zoomAndPan="magnify" 
   contentStyleType="text/css" 
   width="22.449036"
   height="25.975359"
   preserveAspectRatio="xMidYMid meet"
   viewBox="0 0 22.4 25.9"
   style="height: 100%;width: 100%">
  <path
     d="m 22.166036,5.3453586 c -0.176,-0.138 -0.404,-0.17 -0.606,-0.083 l -9.66,4.183 c -0.42,0.183 -0.946,0.271 -1.486,0.271 -0.7529996,0.002 -1.5319996,-0.173 -2.0749996,-0.412 -0.194,-0.083 -0.356,-0.176 -0.471,-0.259 0.042,-0.021 0.09,-0.042 0.146,-0.064 l 8.7859996,-3.804 1.31,0.561 v -1.639 c 0,-0.244 -0.106,-0.475 -0.283,-0.612 -0.176,-0.138 -0.406,-0.17 -0.605,-0.083 l -9.6599996,4.183 c -0.298,0.121 -0.554,0.268 -0.771,0.483 -0.213,0.208 -0.397,0.552 -0.394,0.934 0,0.01 0.003,0.027 0.003,0.027 V 23.761359 c 0,0.006 -0.002,0.012 -0.002,0.019 0,0.005 0.002,0.007 0.002,0.012 v 0.015 h 0.002 c 0.021,0.515 0.28,0.843 0.528,1.075 0.781,0.688 2.091,1.073 3.4839996,1.093 0.66,0 1.33,-0.1 1.951,-0.366 l 9.662,-4.184 c 0.255,-0.109 0.422,-0.383 0.422,-0.692 V 5.9583586 c -0.001,-0.244 -0.107,-0.475 -0.283,-0.613 z m -6.126,-2.8 c -0.017,-0.221 -0.108,-0.429 -0.271,-0.556 -0.176,-0.138 -0.404,-0.17 -0.606,-0.083 l -9.6599996,4.183 c -0.42,0.182 -0.947,0.271 -1.486,0.271 -0.753,0.001 -1.532,-0.174 -2.075,-0.413 -0.193,-0.082 -0.356,-0.175 -0.471,-0.258 0.042,-0.021 0.091,-0.042 0.146,-0.064 l 8.7869996,-3.804 1.309,0.561 V 0.74335859 c 0,-0.244 -0.106,-0.475 -0.283,-0.612 -0.176,-0.138 -0.407,-0.17 -0.606,-0.083 L 1.1640364,4.2313586 c -0.29800003,0.12 -0.55300003,0.267 -0.77000003,0.483 -0.214,0.208 -0.397,0.552 -0.393999997969,0.934 0,0.011 0.002999998,0.027 0.002999998,0.027 V 20.405359 c 0,0.006 -0.001,0.013 -0.001,0.019 0,0.005 0.001,0.007 0.001,0.012 v 0.016 h 0.002 c 0.021,0.515 0.28,0.843 0.528,1.075 0.78100003,0.688 2.09100003,1.072 3.48500003,1.092 0.376,0 0.754,-0.045 1.126,-0.122 V 9.0313586 c -0.01,-0.7 0.27,-1.372 0.762,-1.856 0.319,-0.315 0.708,-0.564 1.19,-0.756 l 8.9439996,-3.874 z"
     style="fill:#286e94;fill-opacity:1" />
</svg>
