<?xml version="1.0" encoding="UTF-8" standalone="no"?>
<svg
   xmlns:dc="http://purl.org/dc/elements/1.1/"
   xmlns:cc="http://creativecommons.org/ns#"
   xmlns:rdf="http://www.w3.org/1999/02/22-rdf-syntax-ns#"
   xmlns:svg="http://www.w3.org/2000/svg"
   xmlns="http://www.w3.org/2000/svg"
   xmlns:sodipodi="http://sodipodi.sourceforge.net/DTD/sodipodi-0.dtd"
   xmlns:inkscape="http://www.inkscape.org/namespaces/inkscape"
   version="1.1"
   width="22.449036"
   height="25.975359"
   id="svg2"
   inkscape:version="0.48.2 r9819"
   sodipodi:docname="Books.svg">
  <metadata
     id="metadata10">
    <rdf:RDF>
      <cc:Work
         rdf:about="">
        <dc:format>image/svg+xml</dc:format>
        <dc:type
           rdf:resource="http://purl.org/dc/dcmitype/StillImage" />
      </cc:Work>
    </rdf:RDF>
  </metadata>
  <defs
     id="defs8" />
  <sodipodi:namedview
     pagecolor="#ffffff"
     bordercolor="#666666"
     borderopacity="1"
     objecttolerance="10"
     gridtolerance="10"
     guidetolerance="10"
     inkscape:pageopacity="0"
     inkscape:pageshadow="2"
     inkscape:window-width="885"
     inkscape:window-height="728"
     id="namedview6"
     showgrid="false"
     inkscape:zoom="15.301617"
     inkscape:cx="6.716179"
     inkscape:cy="9.9458586"
     inkscape:window-x="0"
     inkscape:window-y="0"
     inkscape:window-maximized="0"
     inkscape:current-layer="svg2"
     fit-margin-top="0"
     fit-margin-left="0"
     fit-margin-right="0"
     fit-margin-bottom="0" />
  <path
     d="m 22.166036,5.3453586 c -0.176,-0.138 -0.404,-0.17 -0.606,-0.083 l -9.66,4.183 c -0.42,0.183 -0.946,0.271 -1.486,0.271 -0.7529996,0.002 -1.5319996,-0.173 -2.0749996,-0.412 -0.194,-0.083 -0.356,-0.176 -0.471,-0.259 0.042,-0.021 0.09,-0.042 0.146,-0.064 l 8.7859996,-3.804 1.31,0.561 v -1.639 c 0,-0.244 -0.106,-0.475 -0.283,-0.612 -0.176,-0.138 -0.406,-0.17 -0.605,-0.083 l -9.6599996,4.183 c -0.298,0.121 -0.554,0.268 -0.771,0.483 -0.213,0.208 -0.397,0.552 -0.394,0.934 0,0.01 0.003,0.027 0.003,0.027 V 23.761359 c 0,0.006 -0.002,0.012 -0.002,0.019 0,0.005 0.002,0.007 0.002,0.012 v 0.015 h 0.002 c 0.021,0.515 0.28,0.843 0.528,1.075 0.781,0.688 2.091,1.073 3.4839996,1.093 0.66,0 1.33,-0.1 1.951,-0.366 l 9.662,-4.184 c 0.255,-0.109 0.422,-0.383 0.422,-0.692 V 5.9583586 c -0.001,-0.244 -0.107,-0.475 -0.283,-0.613 z m -6.126,-2.8 c -0.017,-0.221 -0.108,-0.429 -0.271,-0.556 -0.176,-0.138 -0.404,-0.17 -0.606,-0.083 l -9.6599996,4.183 c -0.42,0.182 -0.947,0.271 -1.486,0.271 -0.753,0.001 -1.532,-0.174 -2.075,-0.413 -0.193,-0.082 -0.356,-0.175 -0.471,-0.258 0.042,-0.021 0.091,-0.042 0.146,-0.064 l 8.7869996,-3.804 1.309,0.561 V 0.74335859 c 0,-0.244 -0.106,-0.475 -0.283,-0.612 -0.176,-0.138 -0.407,-0.17 -0.606,-0.083 L 1.1640364,4.2313586 c -0.29800003,0.12 -0.55300003,0.267 -0.77000003,0.483 -0.214,0.208 -0.397,0.552 -0.393999997969,0.934 0,0.011 0.002999998,0.027 0.002999998,0.027 V 20.405359 c 0,0.006 -0.001,0.013 -0.001,0.019 0,0.005 0.001,0.007 0.001,0.012 v 0.016 h 0.002 c 0.021,0.515 0.28,0.843 0.528,1.075 0.78100003,0.688 2.09100003,1.072 3.48500003,1.092 0.376,0 0.754,-0.045 1.126,-0.122 V 9.0313586 c -0.01,-0.7 0.27,-1.372 0.762,-1.856 0.319,-0.315 0.708,-0.564 1.19,-0.756 l 8.9439996,-3.874 z"
     id="path4"
     inkscape:connector-curvature="0"
     style="fill:#276E94" />
</svg>
