<?xml version="1.0" encoding="UTF-8" standalone="no"?>
<svg
   xmlns:dc="http://purl.org/dc/elements/1.1/"
   xmlns:cc="http://creativecommons.org/ns#"
   xmlns:rdf="http://www.w3.org/1999/02/22-rdf-syntax-ns#"
   xmlns:svg="http://www.w3.org/2000/svg"
   xmlns="http://www.w3.org/2000/svg"
   xmlns:sodipodi="http://sodipodi.sourceforge.net/DTD/sodipodi-0.dtd"
   xmlns:inkscape="http://www.inkscape.org/namespaces/inkscape"
   version="1.1"
   width="27.302"
   height="28.059"
   id="svg2"
   inkscape:version="0.48.2 r9819"
   sodipodi:docname="Choices.svg">
  <metadata
     id="metadata10">
    <rdf:RDF>
      <cc:Work
         rdf:about="">
        <dc:format>image/svg+xml</dc:format>
        <dc:type
           rdf:resource="http://purl.org/dc/dcmitype/StillImage" />
      </cc:Work>
    </rdf:RDF>
  </metadata>
  <defs
     id="defs8" />
  <sodipodi:namedview
     pagecolor="#ffffff"
     bordercolor="#666666"
     borderopacity="1"
     objecttolerance="10"
     gridtolerance="10"
     guidetolerance="10"
     inkscape:pageopacity="0"
     inkscape:pageshadow="2"
     inkscape:window-width="1680"
     inkscape:window-height="988"
     id="namedview6"
     showgrid="false"
     fit-margin-top="0"
     fit-margin-left="0"
     fit-margin-right="0"
     fit-margin-bottom="0"
     inkscape:zoom="1.4436245"
     inkscape:cx="265.152"
     inkscape:cy="-231.472"
     inkscape:window-x="-8"
     inkscape:window-y="-8"
     inkscape:window-maximized="1"
     inkscape:current-layer="svg2" />
  <path
     d="M 20.84,1.766 C 20.84,0.791 20.051,0 19.074,0 c -0.977,0 -1.766,0.791 -1.766,1.766 0,0.975 1.766,4.267 1.766,4.267 0,0 1.766,-3.292 1.766,-4.267 z M 18.23,1.765 c 0,-0.466 0.378,-0.843 0.844,-0.843 0.467,0 0.844,0.377 0.844,0.844 0,0.466 -0.377,0.843 -0.844,0.843 -0.466,0 -0.844,-0.377 -0.844,-0.844 z m 4.703,14.762 c -0.562,0 -1.098,0.046 -1.592,0.122 L 8.752,12.007 c 0.199,-0.181 0.312,-0.38 0.312,-0.59 0,-0.108 -0.033,-0.213 -0.088,-0.315 l 8.41,-2.239 c 0.459,0.137 1.023,0.221 1.646,0.221 1.521,0 2.75,-0.485 2.75,-1.083 0,-0.599 -1.229,-1.083 -2.75,-1.083 -1.521,0 -2.75,0.485 -2.75,1.083 0,0.069 0.021,0.137 0.054,0.202 L 7.548,10.231 C 6.915,10.043 6.137,9.928 5.283,9.928 c -2.088,0 -3.781,0.667 -3.781,1.49 0,0.823 1.693,1.489 3.781,1.489 0.573,0 1.11,-0.054 1.597,-0.144 l 11.99,4.866 c -0.19,0.192 -0.306,0.401 -0.306,0.623 0,0.188 0.096,0.363 0.236,0.532 L 6.347,23.446 C 6.189,23.441 6.031,23.435 5.87,23.435 2.629,23.435 0,24.472 0,25.747 c 0,1.276 2.629,2.312 5.87,2.312 3.241,0 5.87,-1.034 5.87,-2.312 0,-0.22 -0.083,-0.432 -0.229,-0.633 L 21.776,19.9 c 0.37,0.04 0.753,0.066 1.155,0.066 2.414,0 4.371,-0.771 4.371,-1.723 0,-0.944 -1.957,-1.716 -4.369,-1.716 z"
     id="path4"
     inkscape:connector-curvature="0"
     style="fill:#276E94" />
</svg>
