<?xml version="1.0" encoding="UTF-8" standalone="no"?>
<svg
   xmlns:dc="http://purl.org/dc/elements/1.1/"
   xmlns:cc="http://creativecommons.org/ns#"
   xmlns:rdf="http://www.w3.org/1999/02/22-rdf-syntax-ns#"
   xmlns:svg="http://www.w3.org/2000/svg"
   xmlns="http://www.w3.org/2000/svg"
   xmlns:sodipodi="http://sodipodi.sourceforge.net/DTD/sodipodi-0.dtd"
   xmlns:inkscape="http://www.inkscape.org/namespaces/inkscape"
   version="1.1"
   width="28"
   height="21"
   id="svg2"
   inkscape:version="0.48.2 r9819"
   preserveAspectRatio="xMidYMid meet"
   viewBox="0 0 28 21"
   style="height: 100%;width: 100%"
   sodipodi:docname="LearnMore.svg">
  <metadata
     id="metadata10">
    <rdf:RDF>
      <cc:Work
         rdf:about="">
        <dc:format>image/svg+xml</dc:format>
        <dc:type
           rdf:resource="http://purl.org/dc/dcmitype/StillImage" />
      </cc:Work>
    </rdf:RDF>
  </metadata>
  <defs
     id="defs8" />
  <sodipodi:namedview
     pagecolor="#ffffff"
     bordercolor="#666666"
     borderopacity="1"
     objecttolerance="10"
     gridtolerance="10"
     guidetolerance="10"
     inkscape:pageopacity="0"
     inkscape:pageshadow="2"
     inkscape:window-width="708"
     inkscape:window-height="480"
     id="namedview6"
     showgrid="false"
     fit-margin-top="0"
     fit-margin-left="0"
     fit-margin-right="0"
     fit-margin-bottom="0"
     inkscape:zoom="4.3855162"
     inkscape:cx="14.385042"
     inkscape:cy="0.017153939"
     inkscape:window-x="0"
     inkscape:window-y="0"
     inkscape:window-maximized="0"
     inkscape:current-layer="svg2" />
  <path
     d="M 14,0 C 6.268,0 0,4.701 0,10.5 c 0,1.981 0.741,3.833 2.016,5.414 L 0,20.334 5.613,18.894 C 7.952,20.21 10.85,21 14,21 21.732,21 28,16.299 28,10.5 28,4.701 21.732,0 14,0 z m 0.982,16.437 h -1.969 v -1.889 h 1.969 v 1.889 z m 0,-3.906 v 0.625 h -1.969 v -0.769 c 0,-2.321 2.641,-2.689 2.641,-4.337 0,-0.752 -0.672,-1.329 -1.553,-1.329 -0.912,0 -1.713,0.672 -1.713,0.672 L 11.268,6 c 0,0 1.104,-1.153 3.009,-1.153 1.81,0 3.49,1.121 3.49,3.009 0.001,2.643 -2.785,2.947 -2.785,4.675 z"
     id="path4"
     inkscape:connector-curvature="0"
     style="fill:#286e94;fill-opacity:1" />
</svg>
