<?xml version="1.0" encoding="UTF-8" standalone="no"?>
<!-- Created with Inkscape (http://www.inkscape.org/) -->

<svg
   xmlns:dc="http://purl.org/dc/elements/1.1/"
   xmlns:cc="http://creativecommons.org/ns#"
   xmlns:rdf="http://www.w3.org/1999/02/22-rdf-syntax-ns#"
   xmlns:svg="http://www.w3.org/2000/svg"
   xmlns="http://www.w3.org/2000/svg"
   xmlns:sodipodi="http://sodipodi.sourceforge.net/DTD/sodipodi-0.dtd"
   xmlns:inkscape="http://www.inkscape.org/namespaces/inkscape"
   version="1.1"
   width="1264.7014"
   height="284.125"
   id="svg4222"
   inkscape:version="0.48.2 r9819"
   sodipodi:docname="LogoDraft2.svg">
  <sodipodi:namedview
     pagecolor="#ffffff"
     bordercolor="#666666"
     borderopacity="1"
     objecttolerance="10"
     gridtolerance="10"
     guidetolerance="10"
     inkscape:pageopacity="0"
     inkscape:pageshadow="2"
     inkscape:window-width="1680"
     inkscape:window-height="988"
     id="namedview14"
     showgrid="false"
     inkscape:zoom="1.1784651"
     inkscape:cx="629.29961"
     inkscape:cy="57.964322"
     inkscape:window-x="-8"
     inkscape:window-y="-8"
     inkscape:window-maximized="1"
     inkscape:current-layer="svg4222"
     fit-margin-top="0"
     fit-margin-left="0"
     fit-margin-right="0"
     fit-margin-bottom="0" />
  <defs
     id="defs4224" />
  <metadata
     id="metadata4227">
    <rdf:RDF>
      <cc:Work
         rdf:about="">
        <dc:format>image/svg+xml</dc:format>
        <dc:type
           rdf:resource="http://purl.org/dc/dcmitype/StillImage" />
        <dc:title />
      </cc:Work>
    </rdf:RDF>
  </metadata>
  <path
     inkscape:connector-curvature="0"
     style="fill:#69b6e1;fill-opacity:1;stroke:none"
     id="path3945-7-2-1-7-4"
     d="m 630.49426,58.60683 -2.46018,7.80851 c 0,0 105.86208,9.80896 114.84705,23.41939 2.86729,-9.74952 99.67974,-24.30763 115.44273,-22.95188 -1.97491,-3.9173 -4.87422,-7.73871 -4.87422,-7.73871 -48.25207,-9.48719 -70.8156,-10.88398 -106.68221,-12.23244 -50.34928,-0.069 -82.519,6.08496 -116.27317,11.69513 z" />
  <path
     inkscape:connector-curvature="0"
     style="fill:#000000;fill-opacity:0;stroke:#286e94;stroke-width:4.60226583;stroke-linecap:butt;stroke-linejoin:miter;stroke-miterlimit:4;stroke-opacity:1;stroke-dasharray:none"
     id="path3817-7-5-6-3"
     d="m 629.51383,58.62332 c 0,0 103.41405,-28.42206 224.29198,0.34133" />
  <path
     inkscape:connector-curvature="0"
     style="fill:#69b6e1;fill-opacity:1;stroke:none"
     id="path3925-1-1-3-5-9-1"
     d="m 862.40603,76.30691 c 0,0 45.28579,84.97086 -14.45982,160.83959 -5.56157,7.06256 -77.77603,-55.80976 -75.14898,-110.02291 4.07991,-12.9082 -0.79883,-30.60391 64.48879,-45.66329 5.70436,-1.31549 25.12001,-5.15339 25.12001,-5.15339 z" />
  <path
     inkscape:connector-curvature="0"
     style="fill:#69b6e1;fill-opacity:1;stroke:none"
     id="path3925-15-2-2-5-2"
     d="m 622.86374,76.35715 c 0,0 -46.92243,84.97086 14.98241,160.83959 5.76258,7.06218 80.5869,-55.80975 77.86489,-110.02291 -4.22734,-12.90859 0.82772,-30.60391 -66.81945,-45.66329 -5.9105,-1.31548 -26.02785,-5.15339 -26.02785,-5.15339 z" />
  <path
     inkscape:connector-curvature="0"
     style="fill:none;stroke:#286e94;stroke-width:9.97157478;stroke-miterlimit:4;stroke-opacity:1;stroke-dasharray:none"
     id="path2985-1-1-57-3"
     d="m 879.38616,142.06279 a 137.04836,137.04836 0 1 1 -274.09671,0 137.04836,137.04836 0 1 1 274.09671,0 z" />
  <path
     inkscape:connector-curvature="0"
     style="fill:#80b3ff;fill-opacity:1;stroke:#286e94;stroke-width:6.51987648;stroke-linecap:butt;stroke-linejoin:miter;stroke-miterlimit:4;stroke-opacity:1;stroke-dasharray:none"
     id="path3856-4-9-2-18-3"
     d="M 742.08056,89.91911 C 753.33019,89.77337 745.98313,76.27952 856.87971,65.3572 746.06187,76.14031 744.59451,87.45919 742.1593,87.51826 c -2.43521,0.0575 -2.54244,-11.2978 -115.71936,-21.99116 113.26766,10.66306 104.391,24.53966 115.64062,24.39201 z" />
  <path
     inkscape:connector-curvature="0"
     style="fill:#286e94;fill-opacity:1;stroke:#286e94;stroke-width:9.2656641;stroke-linecap:butt;stroke-linejoin:miter;stroke-miterlimit:4;stroke-opacity:1;stroke-dasharray:none"
     id="path3757-7-0-9-8-4-7-9-4"
     d="m 707.85574,164.99257 c 12.53381,-31.91787 8.1072,-49.88549 -3.49189,-61.70833 C 689.48346,88.11709 625.2384,77.33398 625.2384,77.33398 c 0,0 56.26285,8.92188 75.46638,24.20101 12.81807,10.19824 18.07616,33.15434 2.25139,58.39585 -17.95425,28.63837 -66.88078,64.83518 -66.88078,64.83518 l 17.81399,20.50693 c 0,0 41.43259,-48.36252 53.96636,-80.28038 z" />
  <path
     inkscape:connector-curvature="0"
     style="fill:#286e94;fill-opacity:1;stroke:#286e94;stroke-width:9.2656641;stroke-linecap:butt;stroke-linejoin:miter;stroke-miterlimit:4;stroke-opacity:1;stroke-dasharray:none"
     id="path3757-7-0-9-8-4-7-1-2-1"
     d="m 777.21276,164.80234 c -12.53381,-31.91786 -8.10719,-49.88549 3.4919,-61.70833 14.88039,-15.16715 79.1254,-25.95064 79.1254,-25.95064 0,0 -56.26281,8.92226 -75.46634,24.20101 -12.81807,10.19862 -18.07616,33.15472 -2.25139,58.39623 17.95425,28.63798 66.88074,64.8348 66.88074,64.8348 l -17.81395,20.50732 c 0,0 -41.43259,-48.36253 -53.96636,-80.28039 z" />
  <text
     xml:space="preserve"
     style="font-size:14px;font-style:normal;font-variant:normal;font-weight:bold;font-stretch:normal;line-height:125%;letter-spacing:0px;word-spacing:0px;fill:#286e94;fill-opacity:1;stroke:none;font-family:Source Sans Pro;-inkscape-font-specification:Source Sans Pro Bold"
     x="-8.102417"
     y="204.07243"
     id="text2990"
     sodipodi:linespacing="125%"><tspan
       sodipodi:role="line"
       id="tspan2992"
       x="-8.102417"
       y="204.07243"
       style="font-size:180px;font-style:normal;font-variant:normal;font-weight:bold;font-stretch:normal;fill:#286e94;fill-opacity:1;font-family:Source Sans Pro;-inkscape-font-specification:Source Sans Pro Bold">Change</tspan></text>
  <text
     xml:space="preserve"
     style="font-size:14px;font-style:normal;font-variant:normal;font-weight:bold;font-stretch:normal;line-height:125%;letter-spacing:0px;word-spacing:0px;fill:#286e94;fill-opacity:1;stroke:none;font-family:Source Sans Pro;-inkscape-font-specification:Source Sans Pro Bold"
     x="898.67535"
     y="204.07243"
     id="text2990-1"
     sodipodi:linespacing="125%"><tspan
       sodipodi:role="line"
       id="tspan2992-7"
       x="898.67535"
       y="204.07243"
       style="font-size:180px;font-style:normal;font-variant:normal;font-weight:bold;font-stretch:normal;fill:#286e94;fill-opacity:1;font-family:Source Sans Pro;-inkscape-font-specification:Source Sans Pro Bold">Path</tspan></text>
  <flowRoot
     xml:space="preserve"
     id="flowRoot3027"
     style="font-size:14px;font-style:normal;font-variant:normal;font-weight:normal;font-stretch:normal;line-height:125%;letter-spacing:0px;word-spacing:0px;fill:#000000;fill-opacity:1;stroke:none;font-family:Lato;-inkscape-font-specification:Lato"
     transform="translate(-16.72594,0)"><flowRegion
       id="flowRegion3029"><rect
         id="rect3031"
         width="688.55121"
         height="384.69662"
         x="-27.876566"
         y="-16.900997" /></flowRegion><flowPara
       id="flowPara3033" /></flowRoot></svg>
