<?xml version="1.0" encoding="UTF-8" standalone="no"?>
<!-- Created with Inkscape (http://www.inkscape.org/) -->

<svg
   xmlns:dc="http://purl.org/dc/elements/1.1/"
   xmlns:cc="http://creativecommons.org/ns#"
   xmlns:rdf="http://www.w3.org/1999/02/22-rdf-syntax-ns#"
   xmlns:svg="http://www.w3.org/2000/svg"
   xmlns="http://www.w3.org/2000/svg"
   xmlns:sodipodi="http://sodipodi.sourceforge.net/DTD/sodipodi-0.dtd"
   xmlns:inkscape="http://www.inkscape.org/namespaces/inkscape"
   version="1.1"
   width="1264.7014"
   height="284.125"
   id="svg4222"
   inkscape:version="0.48.2 r9819"
   sodipodi:docname="LogoDraft2.svg"
   inkscape:export-filename="C:\Users\New PC\Documents\GitHub\TinyHedgehogArmy.github.io\images\LogoDraft2.png"
   inkscape:export-xdpi="142.22614"
   inkscape:export-ydpi="142.22614">
  <sodipodi:namedview
     pagecolor="#ffffff"
     bordercolor="#666666"
     borderopacity="1"
     objecttolerance="10"
     gridtolerance="10"
     guidetolerance="10"
     inkscape:pageopacity="0"
     inkscape:pageshadow="2"
     inkscape:window-width="1680"
     inkscape:window-height="988"
     id="namedview14"
     showgrid="false"
     inkscape:zoom="0.79489324"
     inkscape:cx="408.3288"
     inkscape:cy="154.46252"
     inkscape:window-x="-8"
     inkscape:window-y="-8"
     inkscape:window-maximized="1"
     inkscape:current-layer="svg4222"
     fit-margin-top="0"
     fit-margin-left="0"
     fit-margin-right="0"
     fit-margin-bottom="0" />
  <defs
     id="defs4224" />
  <metadata
     id="metadata4227">
    <rdf:RDF>
      <cc:Work
         rdf:about="">
        <dc:format>image/svg+xml</dc:format>
        <dc:type
           rdf:resource="http://purl.org/dc/dcmitype/StillImage" />
        <dc:title />
      </cc:Work>
    </rdf:RDF>
  </metadata>
  <path
     inkscape:connector-curvature="0"
     style="fill:#69b6e1;fill-opacity:1;stroke:none"
     id="path3945-7-2-1-7-4"
     d="m 630.49426,58.60683 -2.46018,7.80851 c 0,0 105.86208,9.80896 114.84705,23.41939 2.86729,-9.74952 99.67974,-24.30763 115.44273,-22.95188 -1.97491,-3.9173 -4.87422,-7.73871 -4.87422,-7.73871 -48.25207,-9.48719 -70.8156,-10.88398 -106.68221,-12.23244 -50.34928,-0.069 -82.519,6.08496 -116.27317,11.69513 z" />
  <path
     inkscape:connector-curvature="0"
     style="fill:#000000;fill-opacity:0;stroke:#286e94;stroke-width:4.60226583;stroke-linecap:butt;stroke-linejoin:miter;stroke-miterlimit:4;stroke-opacity:1;stroke-dasharray:none"
     id="path3817-7-5-6-3"
     d="m 629.51383,58.62332 c 0,0 103.41405,-28.42206 224.29198,0.34133" />
  <path
     inkscape:connector-curvature="0"
     style="fill:#69b6e1;fill-opacity:1;stroke:none"
     id="path3925-1-1-3-5-9-1"
     d="m 862.40603,76.30691 c 0,0 45.28579,84.97086 -14.45982,160.83959 -5.56157,7.06256 -77.77603,-55.80976 -75.14898,-110.02291 4.07991,-12.9082 -0.79883,-30.60391 64.48879,-45.66329 5.70436,-1.31549 25.12001,-5.15339 25.12001,-5.15339 z" />
  <path
     inkscape:connector-curvature="0"
     style="fill:#69b6e1;fill-opacity:1;stroke:none"
     id="path3925-15-2-2-5-2"
     d="m 622.86374,76.35715 c 0,0 -46.92243,84.97086 14.98241,160.83959 5.76258,7.06218 80.5869,-55.80975 77.86489,-110.02291 -4.22734,-12.90859 0.82772,-30.60391 -66.81945,-45.66329 -5.9105,-1.31548 -26.02785,-5.15339 -26.02785,-5.15339 z" />
  <path
     inkscape:connector-curvature="0"
     style="fill:none;stroke:#286e94;stroke-width:9.97157478;stroke-miterlimit:4;stroke-opacity:1;stroke-dasharray:none"
     id="path2985-1-1-57-3"
     d="m 879.38616,142.06279 a 137.04836,137.04836 0 1 1 -274.09671,0 137.04836,137.04836 0 1 1 274.09671,0 z" />
  <path
     inkscape:connector-curvature="0"
     style="fill:#80b3ff;fill-opacity:1;stroke:#286e94;stroke-width:6.51987648;stroke-linecap:butt;stroke-linejoin:miter;stroke-miterlimit:4;stroke-opacity:1;stroke-dasharray:none"
     id="path3856-4-9-2-18-3"
     d="M 742.08056,89.91911 C 753.33019,89.77337 745.98313,76.27952 856.87971,65.3572 746.06187,76.14031 744.59451,87.45919 742.1593,87.51826 c -2.43521,0.0575 -2.54244,-11.2978 -115.71936,-21.99116 113.26766,10.66306 104.391,24.53966 115.64062,24.39201 z" />
  <path
     inkscape:connector-curvature="0"
     style="fill:#286e94;fill-opacity:1;stroke:#286e94;stroke-width:9.2656641;stroke-linecap:butt;stroke-linejoin:miter;stroke-miterlimit:4;stroke-opacity:1;stroke-dasharray:none"
     id="path3757-7-0-9-8-4-7-9-4"
     d="m 707.85574,164.99257 c 12.53381,-31.91787 8.1072,-49.88549 -3.49189,-61.70833 C 689.48346,88.11709 625.2384,77.33398 625.2384,77.33398 c 0,0 56.26285,8.92188 75.46638,24.20101 12.81807,10.19824 18.07616,33.15434 2.25139,58.39585 -17.95425,28.63837 -66.88078,64.83518 -66.88078,64.83518 l 17.81399,20.50693 c 0,0 41.43259,-48.36252 53.96636,-80.28038 z" />
  <path
     inkscape:connector-curvature="0"
     style="fill:#286e94;fill-opacity:1;stroke:#286e94;stroke-width:9.2656641;stroke-linecap:butt;stroke-linejoin:miter;stroke-miterlimit:4;stroke-opacity:1;stroke-dasharray:none"
     id="path3757-7-0-9-8-4-7-1-2-1"
     d="m 777.21276,164.80234 c -12.53381,-31.91786 -8.10719,-49.88549 3.4919,-61.70833 14.88039,-15.16715 79.1254,-25.95064 79.1254,-25.95064 0,0 -56.26281,8.92226 -75.46634,24.20101 -12.81807,10.19862 -18.07616,33.15472 -2.25139,58.39623 17.95425,28.63798 66.88074,64.8348 66.88074,64.8348 l -17.81395,20.50732 c 0,0 -41.43259,-48.36253 -53.96636,-80.28039 z" />
  <g
     style="font-size:14px;font-style:normal;font-variant:normal;font-weight:bold;font-stretch:normal;line-height:125%;letter-spacing:0px;word-spacing:0px;fill:#286e94;fill-opacity:1;stroke:none;font-family:Source Sans Pro;-inkscape-font-specification:Source Sans Pro Bold"
     id="text2990">
    <path
       d="m 0,146.11406 c -8.102417e-6,-9.72283 1.4996242,-18.39378 4.4989014,-26.01288 2.9992519,-7.61893 7.0486256,-14.06881 12.1481326,-19.34967 5.099457,-5.280652 11.039393,-9.300729 17.819824,-12.060241 6.780346,-2.759281 13.949834,-4.13898 21.508484,-4.139099 7.320485,1.19e-4 13.950727,1.529964 19.890747,4.589538 5.939851,3.059805 10.891018,6.629442 14.853515,10.708924 l -14.58435,16.380618 c -2.999349,-2.75748 -5.998613,-4.91629 -8.997803,-6.47644 -2.99934,-1.55997 -6.59919,-2.33999 -10.79956,-2.34009 -4.079651,1e-4 -7.889156,0.86985 -11.428528,2.60925 -3.539478,1.7396 -6.62938,4.22891 -9.269715,7.46796 -2.640422,3.23922 -4.710427,7.19887 -6.210022,11.87897 -1.499669,4.68024 -2.249486,9.961 -2.24945,15.84228 -3.6e-5,12.11797 2.579918,21.50761 7.739868,28.16895 5.159864,6.6614 12.059271,9.99208 20.698242,9.99206 4.918144,2e-5 9.147876,-0.96037 12.689209,-2.88116 3.54118,-1.92075 6.751016,-4.4412 9.629517,-7.56134 l 14.578857,16.01806 c -4.918308,5.76051 -10.527739,10.08088 -16.828308,12.96112 -6.300737,2.88025 -13.111338,4.32037 -20.431824,4.32038 -7.558649,-10e-6 -14.697924,-1.28998 -21.417846,-3.86994 C 27.117885,199.78136 21.237458,195.97186 16.196594,190.93279 11.155681,185.89374 7.1960296,179.62422 4.317627,172.12419 1.4391994,164.62423 -8.102417e-6,155.9542 0,146.11406 z"
       style="font-size:180px;fill:#286e94;font-family:Source Sans Pro;-inkscape-font-specification:Source Sans Pro Bold"
       id="path3007" />
    <path
       d="m 108.01208,77.894455 26.46058,0 0,30.959475 -1.26343,16.01806 c 3.36177,-2.99918 7.26283,-5.78879 11.70318,-8.36883 4.44026,-2.57987 9.7201,-3.86984 15.83954,-3.86994 9.71917,1e-4 16.76872,3.17972 21.14868,9.53888 4.3798,6.35933 6.56974,15.1786 6.56983,26.45783 l 0,55.4425 -26.46057,0 0,-52.02026 c -7e-5,-6.47821 -0.86982,-10.9176 -2.60926,-13.31818 -1.73956,-2.40044 -4.53008,-3.6007 -8.37158,-3.60077 -3.3582,7e-5 -6.23753,0.74989 -8.638,2.24946 -2.40055,1.49969 -5.04002,3.63012 -7.91839,6.39129 l 0,60.29846 -26.46058,0 z"
       style="font-size:180px;fill:#286e94;font-family:Source Sans Pro;-inkscape-font-specification:Source Sans Pro Bold"
       id="path3009" />
    <path
       d="m 207.42737,179.23235 c -1e-5,-9.36032 3.95964,-16.67996 11.87897,-21.95893 7.91928,-5.27888 20.69911,-8.81922 38.33953,-10.62103 -0.23809,-3.95868 -1.43743,-7.10809 -3.59802,-9.44824 -2.1607,-2.34002 -5.64153,-3.51006 -10.4425,-3.51013 -3.83793,7e-5 -7.67674,0.71967 -11.51642,2.15881 -3.83975,1.43927 -7.92025,3.41864 -12.24152,5.93811 l -9.36035,-17.45728 c 5.76048,-3.47892 11.79105,-6.29874 18.09174,-8.45947 6.30062,-2.16055 12.99037,-3.24087 20.06927,-3.24097 11.52094,1e-4 20.31091,3.27036 26.36994,9.8108 6.05887,6.5406 9.08835,16.71027 9.08844,30.50903 l 0,51.11938 -21.59913,0 -1.97753,-9.17907 -0.54383,0 c -3.83795,3.35816 -7.88732,6.08734 -12.14813,8.18756 -4.26091,2.10022 -8.91087,3.15032 -13.94989,3.15033 -4.07962,-10e-6 -7.7399,-0.6894 -10.98084,-2.06818 -3.24098,-1.37878 -6.0013,-3.29864 -8.28094,-5.75958 -2.27968,-2.46093 -4.04939,-5.31096 -5.30914,-8.55011 -1.25978,-3.23912 -1.88966,-6.77946 -1.88965,-10.62103 z M 232.63,177.25481 c -3e-5,2.87844 0.92923,5.00795 2.78779,6.38855 1.85848,1.38063 4.34779,2.07094 7.46795,2.07092 3.12007,2e-5 5.76045,-0.66008 7.92114,-1.98029 2.1606,-1.32017 4.44026,-3.18143 6.83899,-5.5838 l 0,-15.65552 c -9.47758,1.3184 -16.01627,3.23735 -19.61608,5.75684 -3.59989,2.51957 -5.39982,5.52066 -5.39979,9.0033 z"
       style="font-size:180px;fill:#286e94;font-family:Source Sans Pro;-inkscape-font-specification:Source Sans Pro Bold"
       id="path3011" />
    <path
       d="m 306.6449,114.79204 21.59912,0 1.80176,11.33789 0.7196,0 c 3.83785,-3.59977 8.03737,-6.74918 12.59857,-9.44824 4.56111,-2.69889 9.90137,-4.04837 16.02082,-4.04847 9.71916,1e-4 16.76871,3.17972 21.14868,9.53888 4.37979,6.35933 6.56973,15.1786 6.56982,26.45783 l 0,55.4425 -26.46057,0 0,-52.02026 c -7e-5,-6.47821 -0.86982,-10.9176 -2.60925,-13.31818 -1.73957,-2.40044 -4.53009,-3.6007 -8.37158,-3.60077 -3.35821,7e-5 -6.23754,0.74989 -8.63801,2.24946 -2.40055,1.49969 -5.04001,3.63012 -7.91839,6.39129 l 0,60.29846 -26.46057,0 z"
       style="font-size:180px;fill:#286e94;font-family:Source Sans Pro;-inkscape-font-specification:Source Sans Pro Bold"
       id="path3013" />
    <path
       d="m 425.85205,215.23454 c -3e-5,3.35814 1.7999,5.90697 5.39978,7.64649 3.59982,1.73948 8.40084,2.60923 14.40308,2.60925 5.99848,-2e-5 10.9176,-1.04921 14.75738,-3.14758 3.83966,-2.09841 5.75952,-4.70766 5.75958,-7.82776 -6e-5,-2.76124 -1.17011,-4.62159 -3.51013,-5.58106 -2.34015,-0.95947 -5.72943,-1.43921 -10.16784,-1.43921 l -9.17908,0 c -3.12016,0 -5.6406,-0.0906 -7.56134,-0.27191 -1.92081,-0.18127 -3.6008,-0.45135 -5.03998,-0.81024 -3.241,2.87841 -4.86148,5.81908 -4.86145,8.82202 z m -21.78039,4.13636 c -1e-5,-7.19972 4.26085,-13.20008 12.78259,-18.0011 l 0,-0.71961 c -2.40236,-1.56005 -4.38356,-3.53942 -5.94361,-5.93811 -1.56007,-2.39867 -2.34009,-5.45836 -2.34008,-9.17908 -10e-6,-3.24094 0.96037,-6.33084 2.88116,-9.26971 1.92076,-2.93881 4.32036,-5.42996 7.19879,-7.47345 l 0,-0.7196 c -3.12013,-2.15695 -5.90974,-5.24593 -8.36883,-9.26697 -2.45912,-4.02095 -3.68867,-8.67182 -3.68866,-13.95264 -1e-5,-5.39788 1.01989,-10.10735 3.05969,-14.12842 2.03978,-4.02091 4.76988,-7.3809 8.19031,-10.07995 3.42038,-2.69889 7.35074,-4.70847 11.79107,-6.02875 4.44028,-1.3201 9.05911,-1.98019 13.85651,-1.98029 5.28071,1e-4 9.90046,0.7197 13.85925,2.15882 l 32.57996,0 0,19.25903 -14.21631,0 c 0.83855,1.32209 1.52794,3.003 2.06818,5.04273 0.54008,2.03985 0.81016,4.25909 0.81024,6.65771 -8e-5,5.15997 -0.90004,9.63048 -2.69989,13.41156 -1.8,3.78117 -4.29024,6.90128 -7.4707,9.36035 -3.18061,2.45914 -6.9004,4.28836 -11.15937,5.48767 -4.25909,1.19937 -8.84953,1.79904 -13.77136,1.79901 -3.47905,3e-5 -7.0789,-0.59872 -10.79956,-1.79626 -1.19754,0.9595 -2.03708,1.91897 -2.51862,2.87842 -0.48159,0.9595 -0.72238,2.21926 -0.72235,3.77929 -3e-5,2.28152 0.99057,3.96243 2.9718,5.04273 1.98117,1.08034 5.4913,1.6205 10.5304,1.62048 l 14.39758,0 c 11.04119,2e-5 19.47228,1.76973 25.29328,5.30915 5.82083,3.53943 8.73129,9.32831 8.73138,17.36663 -9e-5,4.68017 -1.17013,8.97033 -3.51013,12.87049 -2.34018,3.90012 -5.67086,7.2601 -9.99207,10.07995 -4.32136,2.8198 -9.54169,5.03995 -15.66101,6.66046 -6.11944,1.62045 -13.01885,2.43069 -20.69824,2.43073 -5.2808,-4e-5 -10.17154,-0.44956 -14.67224,-1.34857 -4.50076,-0.89909 -8.46041,-2.24949 -11.87897,-4.05121 -3.41859,-1.80179 -6.08826,-4.14187 -8.00903,-7.02026 -1.92078,-2.87844 -2.88117,-6.29885 -2.88116,-10.26123 z m 39.41894,-59.57886 c 3.48262,4e-5 6.39399,-1.22951 8.73413,-3.68866 2.34003,-2.45906 3.51008,-6.20997 3.51013,-11.25275 -5e-5,-4.68011 -1.1701,-8.24975 -3.51013,-10.70892 -2.34014,-2.45904 -5.25151,-3.68859 -8.73413,-3.68866 -3.47905,7e-5 -6.38859,1.20033 -8.72864,3.60077 -2.34012,2.40058 -3.51016,5.99951 -3.51013,10.79681 -3e-5,5.04278 1.17001,8.79369 3.51013,11.25275 2.34005,2.45915 5.24959,3.6887 8.72864,3.68866 z"
       style="font-size:180px;fill:#286e94;font-family:Source Sans Pro;-inkscape-font-specification:Source Sans Pro Bold"
       id="path3015" />
    <path
       d="m 500.41077,159.43498 c -1e-5,-7.20332 1.19933,-13.71454 3.59802,-19.53369 2.39867,-5.81902 5.54808,-10.73814 9.44824,-14.75738 3.90012,-4.01909 8.37064,-7.10899 13.41156,-9.26972 5.04086,-2.16055 10.26027,-3.24087 15.65827,-3.24097 6.36102,1e-4 11.91186,1.08042 16.65252,3.24097 4.74053,2.16073 8.70018,5.16091 11.87897,9.00055 3.17863,3.8398 5.54801,8.36891 7.10815,13.58734 1.55998,5.21857 2.34001,10.88934 2.34009,17.01233 -8e-5,2.39873 -0.12002,4.58775 -0.3598,6.56708 -0.23995,1.97941 -0.47891,3.50925 -0.71686,4.58954 l -53.45947,0 c 1.19748,6.84085 3.86624,11.7911 8.00629,14.85077 4.13997,3.05971 9.21107,4.58955 15.21331,4.58953 6.35736,2e-5 12.77704,-1.97935 19.25904,-5.93811 l 8.82202,16.01807 c -4.56307,3.12012 -9.63417,5.58014 -15.21332,7.38007 -5.57929,1.79992 -11.0697,2.69988 -16.47125,2.69989 -6.35747,-10e-6 -12.29649,-1.05011 -17.81708,-3.15033 -5.52066,-2.10022 -10.32076,-5.15991 -14.40033,-9.17908 -4.0796,-4.01915 -7.25923,-8.90898 -9.53888,-14.66949 -2.27967,-5.76047 -3.4195,-12.35959 -3.41949,-19.79737 z m 57.59582,-9.18457 c -6e-5,-5.15985 -1.13989,-9.35937 -3.41949,-12.59857 -2.27972,-3.23907 -6.11853,-4.85863 -11.51642,-4.8587 -4.20049,7e-5 -7.89097,1.40998 -11.07147,4.22973 -3.18058,2.81989 -5.25059,7.22907 -6.21003,13.22754 z"
       style="font-size:180px;fill:#286e94;font-family:Source Sans Pro;-inkscape-font-specification:Source Sans Pro Bold"
       id="path3017" />
  </g>
  <g
     style="font-size:14px;font-style:normal;font-variant:normal;font-weight:bold;font-stretch:normal;line-height:125%;letter-spacing:0px;word-spacing:0px;fill:#286e94;fill-opacity:1;stroke:none;font-family:Source Sans Pro;-inkscape-font-specification:Source Sans Pro Bold"
     id="text2990-1">
    <path
       d="m 912.35333,86.710983 42.84119,0 c 6.36102,1.18e-4 12.33117,0.63 17.91046,1.889649 5.57914,1.25988 10.43876,3.360097 14.57886,6.300659 4.13992,2.94078 7.41018,6.840919 9.81079,11.700439 2.40041,4.85971 3.60067,10.83078 3.60077,17.91321 -1e-4,6.83723 -1.22966,12.77625 -3.68866,17.81708 -2.4592,5.04095 -5.78897,9.18096 -9.98932,12.42004 -4.20052,3.23918 -9.06105,5.63878 -14.5816,7.19879 -5.5207,1.5601 -11.40113,2.34013 -17.6413,2.34009 l -16.19934,0 0,39.78149 -26.64185,0 z m 41.22071,56.519167 c 14.39934,6e-5 21.59904,-6.23834 21.59912,-18.71521 -8e-5,-6.12296 -1.8293,-10.44425 -5.48767,-12.96387 -3.65852,-2.51944 -9.029,-3.7792 -16.11145,-3.7793 l -14.57886,0 0,35.45838 z"
       style="font-size:180px;fill:#286e94;font-family:Source Sans Pro;-inkscape-font-specification:Source Sans Pro Bold"
       id="path2998" />
    <path
       d="m 1016.1192,179.23235 c 0,-9.36032 3.9596,-16.67996 11.879,-21.95893 7.9193,-5.27888 20.6991,-8.81922 38.3395,-10.62103 -0.2381,-3.95868 -1.4374,-7.10809 -3.598,-9.44824 -2.1607,-2.34002 -5.6415,-3.51006 -10.4425,-3.51013 -3.838,7e-5 -7.6768,0.71967 -11.5164,2.15881 -3.8398,1.43927 -7.9203,3.41864 -12.2416,5.93811 l -9.3603,-17.45728 c 5.7605,-3.47892 11.791,-6.29874 18.0917,-8.45947 6.3007,-2.16055 12.9904,-3.24087 20.0693,-3.24097 11.5209,1e-4 20.3109,3.27036 26.3699,9.8108 6.0589,6.5406 9.0884,16.71027 9.0885,30.50903 l 0,51.11938 -21.5991,0 -1.9776,-9.17907 -0.5438,0 c -3.838,3.35816 -7.8873,6.08734 -12.1481,8.18756 -4.2609,2.10022 -8.9109,3.15032 -13.9499,3.15033 -4.0796,-10e-6 -7.7399,-0.6894 -10.9809,-2.06818 -3.2409,-1.37878 -6.0013,-3.29864 -8.2809,-5.75958 -2.2797,-2.46093 -4.0494,-5.31096 -5.3091,-8.55011 -1.2598,-3.23912 -1.8897,-6.77946 -1.8897,-10.62103 z m 25.2026,-1.97754 c 0,2.87844 0.9293,5.00795 2.7878,6.38855 1.8585,1.38063 4.3478,2.07094 7.468,2.07092 3.12,2e-5 5.7604,-0.66008 7.9211,-1.98029 2.1606,-1.32017 4.4403,-3.18143 6.839,-5.5838 l 0,-15.65552 c -9.4776,1.3184 -16.0163,3.23735 -19.6161,5.75684 -3.5999,2.51957 -5.3998,5.52066 -5.3998,9.0033 z"
       style="font-size:180px;fill:#286e94;font-family:Source Sans Pro;-inkscape-font-specification:Source Sans Pro Bold"
       id="path3000" />
    <path
       d="m 1118.9348,135.49028 -12.2388,0 0,-19.61609 13.678,-1.08215 3.0597,-23.757937 21.9616,0 0,23.757937 21.4234,0 0,20.69824 -21.4234,0 0,35.82092 c 0,5.03909 1.0501,8.66916 3.1504,10.8902 2.1001,2.22109 4.8897,3.33162 8.3688,3.3316 1.4428,2e-5 2.9141,-0.18034 4.4137,-0.54107 1.4996,-0.3607 2.8482,-0.78093 4.0458,-1.26068 l 4.1418,19.25903 c -2.3987,0.72144 -5.2186,1.44196 -8.4595,2.16156 -3.241,0.7196 -7.0203,1.0794 -11.3379,1.07941 -5.5225,-10e-6 -10.2338,-0.83954 -14.1339,-2.51862 -3.9001,-1.67907 -7.0798,-4.01916 -9.5388,-7.02026 -2.4592,-3.00109 -4.2591,-6.63115 -5.3998,-10.8902 -1.1408,-4.25901 -1.7112,-8.96848 -1.7111,-14.12842 z"
       style="font-size:180px;fill:#286e94;font-family:Source Sans Pro;-inkscape-font-specification:Source Sans Pro Bold"
       id="path3002" />
    <path
       d="m 1184.243,77.894455 26.4606,0 0,30.959475 -1.2635,16.01806 c 3.3618,-2.99918 7.2629,-5.78879 11.7032,-8.36883 4.4403,-2.57987 9.7201,-3.86984 15.8395,-3.86994 9.7192,1e-4 16.7688,3.17972 21.1487,9.53888 4.3798,6.35933 6.5698,15.1786 6.5699,26.45783 l 0,55.4425 -26.4606,0 0,-52.02026 c -10e-5,-6.47821 -0.8698,-10.9176 -2.6093,-13.31818 -1.7395,-2.40044 -4.5301,-3.6007 -8.3716,-3.60077 -3.3582,7e-5 -6.2375,0.74989 -8.638,2.24946 -2.4005,1.49969 -5.04,3.63012 -7.9183,6.39129 l 0,60.29846 -26.4606,0 z"
       style="font-size:180px;fill:#286e94;font-family:Source Sans Pro;-inkscape-font-specification:Source Sans Pro Bold"
       id="path3004" />
  </g>
  <flowRoot
     xml:space="preserve"
     id="flowRoot3027"
     style="font-size:14px;font-style:normal;font-variant:normal;font-weight:normal;font-stretch:normal;line-height:125%;letter-spacing:0px;word-spacing:0px;fill:#000000;fill-opacity:1;stroke:none;font-family:Lato;-inkscape-font-specification:Lato"
     transform="translate(-16.72594,0)"><flowRegion
       id="flowRegion3029"><rect
         id="rect3031"
         width="688.55121"
         height="384.69662"
         x="-27.876566"
         y="-16.900997" /></flowRegion><flowPara
       id="flowPara3033" /></flowRoot></svg>
